<?xml version="1.0" encoding="utf-8"?>
<!-- Generator: Adobe Illustrator 19.0.0, SVG Export Plug-In . SVG Version: 6.00 Build 0)  -->
<svg version="1.1" id="Layer_1" xmlns="http://www.w3.org/2000/svg" xmlns:xlink="http://www.w3.org/1999/xlink" x="0px" y="0px"
	 viewBox="0 0 276 144" style="enable-background:new 0 0 276 144;" xml:space="preserve">
<style type="text/css">
	.st0{fill:#343738;}
	.st1{fill:none;stroke:#121617;stroke-width:0.5;stroke-miterlimit:10;stroke-dasharray:4;}
	.st2{fill:#F99F29;}
</style>
<path class="st0" d="M119.9,103.6h-4.7l-11.6,25.6l-11.9-25.6h-4.6v0h-3.4v1.4h3.4v29.8h-3.4v1.4h3.4v0h2.1v0h3.9v-1.4h-3.9v-26.1
	l12.6,27.5h0.8l12.6-27.4v26h-3.5v1.4h3.5v0h4.7v0h3.5v-1.4h-3.5V103.6z M32.6,131.5h-1.4v3.4H16.7v-31.3H12v0H7.7v1.4H12v29.8H7.7
	v1.4H12v0h4.7v0h15.9v-1.4h0V131.5z M53.1,102.9h-0.8l0,0h-3.7v1.4h3.1l-0.5,1.3l-10.2,23.9l-2.4,5.4h-3.6v1.4h4v0h1.6v0h3.6v-1.4
	h-3l4-9.6h12.6l4.1,9.6h-3.7v1.4h4.3l0,0l4.7,0l0,0h3.7v-1.4h-4.3L53.1,102.9z M45.8,123.6l5.5-13.1l5.6,13.1H45.8z M171.7,103.6
	H167v0h-3.5v1.4h3.5v29.8h-3.5v1.4h3.5v0h4.7v0h3.8v-1.4h-3.8V103.6z M143.5,102.9h-0.8l0,0H139v1.4h3.1l-0.5,1.3l-10.2,23.9
	l-2.4,5.4h-3.6v1.4h4v0h1.6l0,0h3.6v-1.4h-3l4-9.6h12.6l4.1,9.6h-3.7v1.4h4.3l0,0l4.7,0l0,0h3.7v-1.4h-4.3L143.5,102.9z
	 M136.3,123.6l5.5-13.1l5.6,13.1H136.3z M223.2,102.9c-4.3,0-7.9,1.4-11,4.3c-3.5,3.3-5.3,7.5-5.3,12.7c0,5.1,1.5,9.2,4.6,12.4
	c3.1,3.2,6.8,4.8,11.3,4.8c4.5,0,8.2-1.6,11.4-4.9c3.1-3.3,4.7-7.4,4.7-12.4c0-4.8-1.6-8.8-4.7-12.1
	C231.1,104.5,227.4,102.9,223.2,102.9z M230.3,131.7c-2,2.4-4.5,3.6-7.6,3.6c-2.9,0-5.2-1.1-6.9-3.3c-2.3-2.9-3.4-7-3.4-12.3
	c0-5.2,1.1-9.2,3.3-11.9c1.8-2.2,4.1-3.3,7-3.3c3.1,0,5.6,1.1,7.3,3.3c2.2,2.7,3.3,6.9,3.3,12.5
	C233.3,125.6,232.3,129.4,230.3,131.7z M269,103.6L269,103.6l-3.6,0v1.4h3.6v23.1l-20-24.5h-2.4v0h-3v1.4h3v2.9c0,0,0,0,0,0v27.5
	h-3.5v1.4h3.5v0h2.1v0h3.4v-1.4h-3.4v-24.9l21.5,26.3h0.9v-33.2H269z M199,121.1c-1.1-0.9-3.2-2.1-6.3-3.8c-3.7-2-6.1-3.6-7.1-4.8
	c-0.7-0.8-1-1.7-1-2.7c0-1.3,0.5-2.5,1.6-3.5c1.1-1,2.5-1.5,4.1-1.5c3.5,0,6.8,1.7,9.9,4.3l0.1-2.5l0,0v-3.7h-1.4v2.8
	c-2-1.2-5.2-2.6-8.6-2.7c-2.8-0.1-5.1,0.8-6.9,2.5c-1.8,1.7-2.7,3.7-2.7,6.1c0,1.3,0.3,2.6,0.9,3.7c0.6,1.1,1.5,2.2,2.7,3.1
	c1.2,0.9,3.2,2.2,6,3.7c2.8,1.6,4.5,2.6,5.1,3.1c0.9,0.7,1.6,1.5,2.1,2.3c0.4,0.8,0.7,1.6,0.7,2.4c0,1.4-0.6,2.7-1.7,3.8
	c-1.2,1.1-2.8,1.7-4.8,1.6c-1.9-0.1-6.1-0.6-10.6-4.6l0,2.7c0,0,0,0,0,0v3.9h1.4v-3c3,1.7,6.1,2.5,7,2.7c0.8,0.2,1.7,0.2,2.7,0.2
	c3,0,5.5-0.9,7.4-2.7c1.9-1.8,2.9-3.9,2.9-6.4c0-1.3-0.3-2.5-0.9-3.7C201,123,200.1,122,199,121.1z"/>
<path class="st1" d="M207.3,65.7"/>
<path class="st2" d="M171.7,45.1c-3,3.3-4.7,6.8-5.2,9.9c0.3-2.4,1.3-10.6,0.6-15.5c-0.8-5.7-2.8-9-2.7-11.6s1.8-4,1.8-4
	s-7.5,1.6-10,6.2c0,0-1.9-2-4.2-3.4c-2-1.2-5-2.9-6.6-4.3c-3.2-3.1-6.2-6.8-5.4-15c0,0-8.1,4.9-4.5,18.3c0,0-3.7,1.2-5.5,5.4
	c-1.8,4.2-0.9,6.9-0.9,6.9s0.7-2.7,4.5-3.8c4.7-1.4,7.5,3.2,8.2,4.3c0.7,1.1,6.1,9,6.1,9s-10.1-0.1-12.9,8.7c0,0,6.3-4.4,11.7-1
	c6.6,4.1,6.9,10.6,3.9,15.3c-3,4.7-9.5,5.9-17.1,4.8c-8.1-1.2-11.9-2.6-16.1-4c0,0-12.3-4.2-20.1-7.3C89.5,61,81.1,57.9,76,58.5
	c-4.8,0.6-10.6,4.6-10.1,12.6c0,0,6.4-6.9,14.6-6.8c8.1,0.1,18.6,3.7,21.3,4.6c2.7,0.9,17.9,6.6,26.1,8.7c8.2,2.1,18.2,3.8,27.4-4.2
	c7.7-6.7,5.4-13.8,4.5-16.9c-0.9-3.1-7.1-11-8-12.1c-0.9-1.2-6.8-8.3-8.8-11.3c-1.9-2.9-5.4-8.3-5-16.9c0,2,0.7,7.4,7.2,15.3
	c8.3,10,14.1,17.1,16.3,21.4c2.2,4.2,3.8,8.6,1.7,14.9c-2.2,6.8-9.6,10.2-9.6,10.2s11,0,17.9-8.1c0,0,3.7-4,4.2-13.5
	c0.5-11.4,5-14.5,5-14.5S175.4,41,171.7,45.1z"/>
</svg>
